<mxfile host="app.diagrams.net" modified="2024-04-20T19:36:24.334Z" agent="Mozilla/5.0 (Windows NT 10.0; Win64; x64) AppleWebKit/537.36 (KHTML, like Gecko) Chrome/124.0.0.0 Safari/537.36" etag="KQO44T0WE3osvxjO0qSj" version="24.2.3" type="device">
  <diagram name="Page-1" id="1y35Y1lkhm4CgG5cF3Xl">
    <mxGraphModel dx="1120" dy="434" grid="1" gridSize="10" guides="1" tooltips="1" connect="1" arrows="1" fold="1" page="1" pageScale="1" pageWidth="2336" pageHeight="1654" math="0" shadow="0">
      <root>
        <mxCell id="0" />
        <mxCell id="1" parent="0" />
        <mxCell id="jhgPEjvAwPEduobiCOK_-46" style="edgeStyle=orthogonalEdgeStyle;rounded=0;orthogonalLoop=1;jettySize=auto;html=1;entryX=0.5;entryY=0;entryDx=0;entryDy=0;" edge="1" parent="1" source="jhgPEjvAwPEduobiCOK_-1" target="jhgPEjvAwPEduobiCOK_-3">
          <mxGeometry relative="1" as="geometry" />
        </mxCell>
        <mxCell id="jhgPEjvAwPEduobiCOK_-1" value="Start" style="strokeWidth=2;html=1;shape=mxgraph.flowchart.start_2;whiteSpace=wrap;" vertex="1" parent="1">
          <mxGeometry x="470" y="40" width="100" height="100" as="geometry" />
        </mxCell>
        <mxCell id="jhgPEjvAwPEduobiCOK_-14" value="" style="edgeStyle=orthogonalEdgeStyle;rounded=0;orthogonalLoop=1;jettySize=auto;html=1;" edge="1" parent="1" source="jhgPEjvAwPEduobiCOK_-2" target="jhgPEjvAwPEduobiCOK_-13">
          <mxGeometry relative="1" as="geometry" />
        </mxCell>
        <mxCell id="jhgPEjvAwPEduobiCOK_-2" value="Bin teams in three groups" style="rounded=1;whiteSpace=wrap;html=1;absoluteArcSize=1;arcSize=14;strokeWidth=2;" vertex="1" parent="1">
          <mxGeometry x="470" y="540" width="100" height="100" as="geometry" />
        </mxCell>
        <mxCell id="jhgPEjvAwPEduobiCOK_-6" style="edgeStyle=orthogonalEdgeStyle;rounded=0;orthogonalLoop=1;jettySize=auto;html=1;entryX=0.5;entryY=0;entryDx=0;entryDy=0;" edge="1" parent="1" source="jhgPEjvAwPEduobiCOK_-3" target="jhgPEjvAwPEduobiCOK_-5">
          <mxGeometry relative="1" as="geometry" />
        </mxCell>
        <mxCell id="jhgPEjvAwPEduobiCOK_-3" value="Select season 2017 and season 2018" style="rounded=1;whiteSpace=wrap;html=1;absoluteArcSize=1;arcSize=14;strokeWidth=2;" vertex="1" parent="1">
          <mxGeometry x="470" y="190" width="100" height="100" as="geometry" />
        </mxCell>
        <mxCell id="jhgPEjvAwPEduobiCOK_-7" style="edgeStyle=orthogonalEdgeStyle;rounded=0;orthogonalLoop=1;jettySize=auto;html=1;entryX=0.5;entryY=0;entryDx=0;entryDy=0;" edge="1" parent="1" source="jhgPEjvAwPEduobiCOK_-5" target="jhgPEjvAwPEduobiCOK_-2">
          <mxGeometry relative="1" as="geometry" />
        </mxCell>
        <mxCell id="jhgPEjvAwPEduobiCOK_-5" value="Filter to season 2017" style="rounded=1;whiteSpace=wrap;html=1;absoluteArcSize=1;arcSize=14;strokeWidth=2;" vertex="1" parent="1">
          <mxGeometry x="470" y="350" width="100" height="100" as="geometry" />
        </mxCell>
        <mxCell id="jhgPEjvAwPEduobiCOK_-31" style="edgeStyle=orthogonalEdgeStyle;rounded=0;orthogonalLoop=1;jettySize=auto;html=1;entryX=0.5;entryY=0;entryDx=0;entryDy=0;" edge="1" parent="1" target="jhgPEjvAwPEduobiCOK_-30">
          <mxGeometry relative="1" as="geometry">
            <mxPoint x="310" y="1120" as="sourcePoint" />
            <mxPoint x="500" y="1250" as="targetPoint" />
            <Array as="points">
              <mxPoint x="310" y="1220" />
              <mxPoint x="500" y="1220" />
            </Array>
          </mxGeometry>
        </mxCell>
        <mxCell id="jhgPEjvAwPEduobiCOK_-8" value="Top" style="shape=parallelogram;html=1;strokeWidth=2;perimeter=parallelogramPerimeter;whiteSpace=wrap;rounded=1;arcSize=12;size=0.23;" vertex="1" parent="1">
          <mxGeometry x="260" y="1090" width="100" height="60" as="geometry" />
        </mxCell>
        <mxCell id="jhgPEjvAwPEduobiCOK_-32" style="edgeStyle=orthogonalEdgeStyle;rounded=0;orthogonalLoop=1;jettySize=auto;html=1;entryX=0.5;entryY=0;entryDx=0;entryDy=0;" edge="1" parent="1" source="jhgPEjvAwPEduobiCOK_-9" target="jhgPEjvAwPEduobiCOK_-30">
          <mxGeometry relative="1" as="geometry" />
        </mxCell>
        <mxCell id="jhgPEjvAwPEduobiCOK_-9" value="Mid&amp;nbsp;" style="shape=parallelogram;html=1;strokeWidth=2;perimeter=parallelogramPerimeter;whiteSpace=wrap;rounded=1;arcSize=12;size=0.23;" vertex="1" parent="1">
          <mxGeometry x="450" y="1090" width="100" height="60" as="geometry" />
        </mxCell>
        <mxCell id="jhgPEjvAwPEduobiCOK_-33" style="edgeStyle=orthogonalEdgeStyle;rounded=0;orthogonalLoop=1;jettySize=auto;html=1;exitX=0.5;exitY=1;exitDx=0;exitDy=0;entryX=0.5;entryY=0;entryDx=0;entryDy=0;" edge="1" parent="1" source="jhgPEjvAwPEduobiCOK_-10" target="jhgPEjvAwPEduobiCOK_-30">
          <mxGeometry relative="1" as="geometry">
            <mxPoint x="480" y="1270" as="targetPoint" />
            <Array as="points">
              <mxPoint x="730" y="1220" />
              <mxPoint x="500" y="1220" />
            </Array>
          </mxGeometry>
        </mxCell>
        <mxCell id="jhgPEjvAwPEduobiCOK_-10" value="Bottom" style="shape=parallelogram;html=1;strokeWidth=2;perimeter=parallelogramPerimeter;whiteSpace=wrap;rounded=1;arcSize=12;size=0.23;" vertex="1" parent="1">
          <mxGeometry x="680" y="1090" width="100" height="60" as="geometry" />
        </mxCell>
        <mxCell id="jhgPEjvAwPEduobiCOK_-21" style="edgeStyle=orthogonalEdgeStyle;rounded=0;orthogonalLoop=1;jettySize=auto;html=1;exitX=0.5;exitY=1;exitDx=0;exitDy=0;entryX=0.5;entryY=0;entryDx=0;entryDy=0;" edge="1" parent="1" source="jhgPEjvAwPEduobiCOK_-13" target="jhgPEjvAwPEduobiCOK_-19">
          <mxGeometry relative="1" as="geometry" />
        </mxCell>
        <mxCell id="jhgPEjvAwPEduobiCOK_-23" style="edgeStyle=orthogonalEdgeStyle;rounded=0;orthogonalLoop=1;jettySize=auto;html=1;entryX=0.5;entryY=0;entryDx=0;entryDy=0;" edge="1" parent="1" source="jhgPEjvAwPEduobiCOK_-13" target="jhgPEjvAwPEduobiCOK_-20">
          <mxGeometry relative="1" as="geometry" />
        </mxCell>
        <mxCell id="jhgPEjvAwPEduobiCOK_-13" value="Team from lower division?" style="rhombus;whiteSpace=wrap;html=1;rounded=1;arcSize=14;strokeWidth=2;" vertex="1" parent="1">
          <mxGeometry x="540" y="710" width="130" height="130" as="geometry" />
        </mxCell>
        <mxCell id="jhgPEjvAwPEduobiCOK_-22" style="edgeStyle=orthogonalEdgeStyle;rounded=0;orthogonalLoop=1;jettySize=auto;html=1;entryX=0.5;entryY=0;entryDx=0;entryDy=0;" edge="1" parent="1" source="jhgPEjvAwPEduobiCOK_-19" target="jhgPEjvAwPEduobiCOK_-10">
          <mxGeometry relative="1" as="geometry" />
        </mxCell>
        <mxCell id="jhgPEjvAwPEduobiCOK_-19" value="Yes" style="rounded=1;whiteSpace=wrap;html=1;absoluteArcSize=1;arcSize=14;strokeWidth=2;" vertex="1" parent="1">
          <mxGeometry x="640" y="890" width="50" height="50" as="geometry" />
        </mxCell>
        <mxCell id="jhgPEjvAwPEduobiCOK_-25" style="edgeStyle=orthogonalEdgeStyle;rounded=0;orthogonalLoop=1;jettySize=auto;html=1;entryX=0.5;entryY=0;entryDx=0;entryDy=0;" edge="1" parent="1" source="jhgPEjvAwPEduobiCOK_-20" target="jhgPEjvAwPEduobiCOK_-24">
          <mxGeometry relative="1" as="geometry" />
        </mxCell>
        <mxCell id="jhgPEjvAwPEduobiCOK_-20" value="No" style="rounded=1;whiteSpace=wrap;html=1;absoluteArcSize=1;arcSize=14;strokeWidth=2;" vertex="1" parent="1">
          <mxGeometry x="520" y="890" width="50" height="50" as="geometry" />
        </mxCell>
        <mxCell id="jhgPEjvAwPEduobiCOK_-28" style="edgeStyle=orthogonalEdgeStyle;rounded=0;orthogonalLoop=1;jettySize=auto;html=1;entryX=0.5;entryY=0;entryDx=0;entryDy=0;exitX=0.5;exitY=1;exitDx=0;exitDy=0;" edge="1" parent="1" source="jhgPEjvAwPEduobiCOK_-24" target="jhgPEjvAwPEduobiCOK_-10">
          <mxGeometry relative="1" as="geometry" />
        </mxCell>
        <mxCell id="jhgPEjvAwPEduobiCOK_-24" value="Calculate" style="rounded=1;whiteSpace=wrap;html=1;absoluteArcSize=1;arcSize=14;strokeWidth=2;" vertex="1" parent="1">
          <mxGeometry x="477.5" y="970" width="135" height="50" as="geometry" />
        </mxCell>
        <mxCell id="jhgPEjvAwPEduobiCOK_-26" style="edgeStyle=orthogonalEdgeStyle;rounded=0;orthogonalLoop=1;jettySize=auto;html=1;entryX=0.6;entryY=0.05;entryDx=0;entryDy=0;entryPerimeter=0;" edge="1" parent="1" source="jhgPEjvAwPEduobiCOK_-24" target="jhgPEjvAwPEduobiCOK_-9">
          <mxGeometry relative="1" as="geometry" />
        </mxCell>
        <mxCell id="jhgPEjvAwPEduobiCOK_-29" style="edgeStyle=orthogonalEdgeStyle;rounded=0;orthogonalLoop=1;jettySize=auto;html=1;entryX=0.51;entryY=0;entryDx=0;entryDy=0;entryPerimeter=0;exitX=0.5;exitY=1;exitDx=0;exitDy=0;" edge="1" parent="1" source="jhgPEjvAwPEduobiCOK_-24" target="jhgPEjvAwPEduobiCOK_-8">
          <mxGeometry relative="1" as="geometry" />
        </mxCell>
        <mxCell id="jhgPEjvAwPEduobiCOK_-35" style="edgeStyle=orthogonalEdgeStyle;rounded=0;orthogonalLoop=1;jettySize=auto;html=1;entryX=0.5;entryY=0;entryDx=0;entryDy=0;" edge="1" parent="1" source="jhgPEjvAwPEduobiCOK_-30" target="jhgPEjvAwPEduobiCOK_-34">
          <mxGeometry relative="1" as="geometry" />
        </mxCell>
        <mxCell id="jhgPEjvAwPEduobiCOK_-30" value="Group teams tor return standings" style="rounded=1;whiteSpace=wrap;html=1;absoluteArcSize=1;arcSize=14;strokeWidth=2;" vertex="1" parent="1">
          <mxGeometry x="450" y="1280" width="100" height="100" as="geometry" />
        </mxCell>
        <mxCell id="jhgPEjvAwPEduobiCOK_-37" style="edgeStyle=orthogonalEdgeStyle;rounded=0;orthogonalLoop=1;jettySize=auto;html=1;entryX=0.5;entryY=0;entryDx=0;entryDy=0;" edge="1" parent="1" source="jhgPEjvAwPEduobiCOK_-34" target="jhgPEjvAwPEduobiCOK_-36">
          <mxGeometry relative="1" as="geometry" />
        </mxCell>
        <mxCell id="jhgPEjvAwPEduobiCOK_-34" value="Return bins" style="rounded=1;whiteSpace=wrap;html=1;absoluteArcSize=1;arcSize=14;strokeWidth=2;" vertex="1" parent="1">
          <mxGeometry x="450" y="1460" width="100" height="100" as="geometry" />
        </mxCell>
        <mxCell id="jhgPEjvAwPEduobiCOK_-36" value="Merge data" style="rounded=1;whiteSpace=wrap;html=1;absoluteArcSize=1;arcSize=14;strokeWidth=2;" vertex="1" parent="1">
          <mxGeometry x="450" y="1654" width="100" height="100" as="geometry" />
        </mxCell>
        <mxCell id="jhgPEjvAwPEduobiCOK_-38" value="Grouped team" style="strokeWidth=2;html=1;shape=mxgraph.flowchart.database;whiteSpace=wrap;" vertex="1" parent="1">
          <mxGeometry x="370" y="1820" width="70" height="70" as="geometry" />
        </mxCell>
        <mxCell id="jhgPEjvAwPEduobiCOK_-44" style="edgeStyle=orthogonalEdgeStyle;rounded=0;orthogonalLoop=1;jettySize=auto;html=1;exitX=0.5;exitY=1;exitDx=0;exitDy=0;exitPerimeter=0;entryX=0.5;entryY=0;entryDx=0;entryDy=0;entryPerimeter=0;" edge="1" parent="1" source="jhgPEjvAwPEduobiCOK_-39" target="jhgPEjvAwPEduobiCOK_-42">
          <mxGeometry relative="1" as="geometry">
            <mxPoint x="500" y="1960" as="targetPoint" />
          </mxGeometry>
        </mxCell>
        <mxCell id="jhgPEjvAwPEduobiCOK_-39" value="home_team&lt;div&gt;2018&lt;/div&gt;" style="strokeWidth=2;html=1;shape=mxgraph.flowchart.database;whiteSpace=wrap;" vertex="1" parent="1">
          <mxGeometry x="552.5" y="1820" width="77.5" height="80" as="geometry" />
        </mxCell>
        <mxCell id="jhgPEjvAwPEduobiCOK_-40" style="edgeStyle=orthogonalEdgeStyle;rounded=0;orthogonalLoop=1;jettySize=auto;html=1;entryX=0.5;entryY=0;entryDx=0;entryDy=0;entryPerimeter=0;exitX=0.5;exitY=1;exitDx=0;exitDy=0;" edge="1" parent="1" source="jhgPEjvAwPEduobiCOK_-36" target="jhgPEjvAwPEduobiCOK_-38">
          <mxGeometry relative="1" as="geometry" />
        </mxCell>
        <mxCell id="jhgPEjvAwPEduobiCOK_-41" style="edgeStyle=orthogonalEdgeStyle;rounded=0;orthogonalLoop=1;jettySize=auto;html=1;entryX=0.5;entryY=0;entryDx=0;entryDy=0;entryPerimeter=0;exitX=0.5;exitY=1;exitDx=0;exitDy=0;" edge="1" parent="1" source="jhgPEjvAwPEduobiCOK_-36" target="jhgPEjvAwPEduobiCOK_-39">
          <mxGeometry relative="1" as="geometry" />
        </mxCell>
        <mxCell id="jhgPEjvAwPEduobiCOK_-48" style="edgeStyle=orthogonalEdgeStyle;rounded=0;orthogonalLoop=1;jettySize=auto;html=1;" edge="1" parent="1" source="jhgPEjvAwPEduobiCOK_-42" target="jhgPEjvAwPEduobiCOK_-47">
          <mxGeometry relative="1" as="geometry" />
        </mxCell>
        <mxCell id="jhgPEjvAwPEduobiCOK_-42" value="Dataframe" style="strokeWidth=2;html=1;shape=mxgraph.flowchart.database;whiteSpace=wrap;" vertex="1" parent="1">
          <mxGeometry x="470" y="1970" width="60" height="60" as="geometry" />
        </mxCell>
        <mxCell id="jhgPEjvAwPEduobiCOK_-43" style="edgeStyle=orthogonalEdgeStyle;rounded=0;orthogonalLoop=1;jettySize=auto;html=1;entryX=0.5;entryY=0;entryDx=0;entryDy=0;entryPerimeter=0;exitX=0.5;exitY=1;exitDx=0;exitDy=0;exitPerimeter=0;" edge="1" parent="1" source="jhgPEjvAwPEduobiCOK_-38" target="jhgPEjvAwPEduobiCOK_-42">
          <mxGeometry relative="1" as="geometry" />
        </mxCell>
        <mxCell id="jhgPEjvAwPEduobiCOK_-47" value="End" style="strokeWidth=2;html=1;shape=mxgraph.flowchart.terminator;whiteSpace=wrap;" vertex="1" parent="1">
          <mxGeometry x="450" y="2120" width="100" height="60" as="geometry" />
        </mxCell>
      </root>
    </mxGraphModel>
  </diagram>
</mxfile>
